<svg width="28" height="23" fill="none" xmlns="http://www.w3.org/2000/svg"><path d="M27.584 11.913c0 5.201-.001 7.801-1.616 9.418-1.616 1.617-4.218 1.617-9.42 1.617h-5.517c-5.201 0-7.801-.002-9.418-1.617-1.616-1.615-1.616-4.217-1.616-9.418 0-.609 0-1.184.003-1.725h27.581c.002.541.003 1.116.003 1.725zM5.516 16.395a1.035 1.035 0 000 2.07h5.517a1.035 1.035 0 000-2.07H5.516zm8.965 0a1.035 1.035 0 000 2.07h2.069a1.037 1.037 0 001.035-1.035 1.035 1.035 0 00-1.035-1.035h-2.07zM16.55.878c5.201 0 7.803 0 9.419 1.616 1.164 1.163 1.489 2.838 1.58 5.626H.032C.123 5.332.45 3.657 1.613 2.494 3.228.878 5.83.878 11.031.878h5.518z" fill="#fff"/></svg>