<svg width="33" height="34" fill="none" xmlns="http://www.w3.org/2000/svg"><path d="M18.857 24.44c0 .634-.248 1.242-.69 1.69-.442.449-1.042.7-1.667.7a2.341 2.341 0 01-1.667-.7 2.407 2.407 0 01-.69-1.69c0-.633.248-1.241.69-1.69a2.341 2.341 0 011.667-.7c.625 0 1.225.252 1.667.7a2.41 2.41 0 01.69 1.69z" fill="#8E95A0"/><path d="M20.188 0l4.997 7.1 3.296-1.14 3.007 8.921H33V34H0V14.881h.801v-.016l1.019.01L20.188 0zM12.41 14.881h15.758l-1.63-4.832-2.391.776L12.41 14.88zm-2.45-2.522l12.12-4.186-2.522-3.583-9.597 7.77zm-3.675 5.708H3.143v3.187c.833 0 1.633-.336 2.222-.933a3.21 3.21 0 00.92-2.254zM22 24.44c0-.732-.142-1.457-.419-2.134a5.582 5.582 0 00-1.192-1.809 5.496 5.496 0 00-1.784-1.208 5.434 5.434 0 00-4.21 0 5.496 5.496 0 00-1.784 1.208 5.582 5.582 0 00-1.192 1.81A5.644 5.644 0 0011 24.44c0 1.478.58 2.897 1.61 3.943a5.462 5.462 0 003.89 1.633 5.462 5.462 0 003.89-1.633A5.616 5.616 0 0022 24.44zm7.857 6.373v-3.186c-.833 0-1.633.336-2.222.933a3.21 3.21 0 00-.92 2.254h3.142zm-3.143-12.745c0 .845.331 1.655.92 2.253.59.597 1.39.933 2.223.933v-3.187h-3.143zM3.143 30.813h3.143a3.21 3.21 0 00-.92-2.253 3.121 3.121 0 00-2.223-.933v3.187z" fill="#8E95A0"/></svg>