<svg width="21" height="21" fill="none" xmlns="http://www.w3.org/2000/svg"><path d="M9.831 15.862h2.013V9.823H9.831v6.039zm1.007-8.051a.975.975 0 00.717-.29.97.97 0 00.289-.717.979.979 0 00-.29-.716.971.971 0 00-.716-.29.971.971 0 00-.717.29.979.979 0 00-.29.716c0 .285.096.524.29.718.194.194.433.29.717.289zm0 13.082c-1.393 0-2.7-.264-3.925-.793a10.18 10.18 0 01-3.195-2.15 10.141 10.141 0 01-2.151-3.195 9.821 9.821 0 01-.793-3.925c0-1.392.264-2.7.793-3.925a10.186 10.186 0 012.15-3.195 10.148 10.148 0 013.196-2.15 9.803 9.803 0 013.925-.794c1.39 0 2.699.264 3.925.793a10.149 10.149 0 013.195 2.15 10.2 10.2 0 012.151 3.196 9.742 9.742 0 01.792 3.925 9.867 9.867 0 01-.793 3.925 10.098 10.098 0 01-2.15 3.195 10.226 10.226 0 01-3.195 2.152 9.752 9.752 0 01-3.925.791z" fill="#fff"/></svg>