<svg width="25" height="25" fill="none" xmlns="http://www.w3.org/2000/svg"><path fill-rule="evenodd" clip-rule="evenodd" d="M24.892 8.437c0 4.196-3.416 7.597-7.628 7.597-.768 0-2.518-.176-3.368-.884l-1.065 1.06c-.627.624-.457.807-.179 1.11.116.126.251.272.356.48 0 0 .888 1.237 0 2.474-.532.706-2.022 1.694-3.724 0l-.355.352s1.063 1.237.177 2.474c-.532.706-1.951 1.412-3.193.177l-1.241 1.235c-.852.849-1.893.354-2.305 0L1.3 23.453c-.993-.989-.414-2.06 0-2.473l9.223-9.185s-.887-1.412-.887-3.356c0-4.195 3.416-7.596 7.628-7.596s7.627 3.401 7.627 7.595zm-7.627 2.65a2.655 2.655 0 002.66-2.649 2.657 2.657 0 00-3.676-2.45 2.655 2.655 0 00-1.644 2.45 2.655 2.655 0 002.66 2.65z" fill="#89929C"/></svg>