<svg width="24" height="22" fill="none" xmlns="http://www.w3.org/2000/svg"><path d="M5.233 2.771C9.7-.398 16.084-.139 20.216 3.385c4.203 3.586 4.778 9.442 1.32 13.637-3.256 3.95-9.129 5.253-14.018 3.215l-.267-.116-5.013 1.067-.046.007-.04.008H2.13l-.025.006h-.044l-.038.004L2 21.212l-.026.001-.038-.003h-.04l-.025-.005-.025-.002-.04-.008-.04-.006-.018-.005-.027-.005-.056-.019-.028-.005-.013-.006-.025-.008-.051-.023-.035-.014-.012-.007-.016-.007-.036-.02-.052-.028-.018-.012-.042-.03-.046-.031-.002-.005-.015-.01-.05-.046-.028-.023-.007-.008-.064-.07-.015-.017-.013-.016-.045-.064-.016-.022-.005-.011-.048-.084-.008-.014-.005-.009-.008-.014-.016-.043-.023-.048-.005-.019-.004-.011-.02-.07-.008-.02-.002-.018-.006-.022-.005-.038-.01-.048-.002-.035-.003-.012v-.018l-.005-.062.001-.041.001-.026.003-.061.004-.029v-.022l.01-.04.005-.039.006-.023.004-.023.021-.068.003-.015L2.23 15.75l-.026-.043C-.329 11.413.82 6.091 4.97 2.964l.263-.193z" fill="#89929C"/></svg>