<svg width="21" height="24" fill="none" xmlns="http://www.w3.org/2000/svg"><path d="M10.809 20.317h-.29c-2.751 0-5.086-.959-7.004-2.877C1.598 15.522.64 13.188.64 10.437c0-2.75.959-5.085 2.876-7.003C5.433 1.517 7.768.558 10.518.558c1.376 0 2.66.256 3.851.77a9.956 9.956 0 015.258 5.259c.513 1.19.77 2.474.771 3.85 0 2.596-.732 5.008-2.194 7.236-1.463 2.228-3.308 3.97-5.535 5.23-.194.097-.388.15-.582.16a.873.873 0 01-.523-.13 1.53 1.53 0 01-.406-.379 1.055 1.055 0 01-.204-.552l-.145-1.685zm-.32-3.516c.33 0 .61-.116.843-.349.232-.232.349-.513.349-.842 0-.33-.117-.61-.349-.843a1.148 1.148 0 00-.843-.349c-.329 0-.61.117-.842.349a1.148 1.148 0 00-.35.843c0 .329.117.61.35.842.232.233.513.349.842.349zM7.961 7.967a.777.777 0 00.64.015 1.16 1.16 0 00.523-.421 1.89 1.89 0 01.61-.539c.232-.126.494-.189.784-.188.465 0 .843.13 1.134.392.29.261.436.595.436 1.003 0 .252-.073.504-.218.755-.145.252-.402.562-.77.93-.485.426-.843.829-1.076 1.207-.232.378-.348.76-.348 1.147 0 .232.082.431.247.596a.807.807 0 00.595.247.753.753 0 00.582-.262c.155-.174.271-.377.348-.61.097-.33.271-.63.523-.9.252-.272.485-.514.698-.727.406-.407.712-.814.915-1.22.204-.408.306-.814.305-1.221 0-.891-.305-1.608-.916-2.15-.61-.543-1.429-.814-2.455-.814-.62 0-1.191.15-1.714.45a3.65 3.65 0 00-1.279 1.235.686.686 0 00-.044.626.84.84 0 00.48.45z" fill="#89929C"/></svg>