<svg width="50" height="50" fill="none" xmlns="http://www.w3.org/2000/svg"><path d="M24.728.519C11.32.519.439 11.4.439 24.808c0 13.407 10.881 24.288 24.289 24.288 13.407 0 24.289-10.881 24.289-24.288 0-13.408-10.882-24.29-24.29-24.29zm11.27 16.516c-.364 3.838-1.943 13.165-2.745 17.464-.34 1.822-1.02 2.429-1.651 2.502-1.41.121-2.478-.923-3.838-1.822-2.137-1.409-3.352-2.283-5.416-3.644-2.405-1.578-.85-2.453.534-3.861.364-.365 6.582-6.024 6.704-6.534a.486.486 0 00-.122-.437c-.145-.122-.34-.073-.51-.049-.218.049-3.619 2.308-10.25 6.777-.971.655-1.846.996-2.623.971-.874-.024-2.526-.486-3.765-.898-1.53-.486-2.72-.753-2.623-1.604.049-.437.656-.874 1.797-1.335 7.093-3.085 11.805-5.125 14.16-6.097 6.753-2.817 8.138-3.303 9.06-3.303.195 0 .657.048.948.291a.965.965 0 01.34.656c-.024.146.024.583 0 .923z" fill="#29ABEE"/></svg>