<svg width="35" height="35" fill="none" xmlns="http://www.w3.org/2000/svg"><path d="M17.469 17.65c-2.305 0-4.278-.82-5.919-2.461-1.64-1.641-2.46-3.614-2.46-5.919 0-2.305.82-4.277 2.461-5.918S15.165.89 17.47.89c2.304 0 4.277.82 5.918 2.462 1.64 1.64 2.461 3.613 2.461 5.918 0 2.304-.82 4.277-2.461 5.918-1.641 1.64-3.614 2.461-5.918 2.461zM.709 30.22v-1.676c0-1.187.306-2.278.918-3.273a6.138 6.138 0 012.434-2.279 31.064 31.064 0 016.6-2.434 28.933 28.933 0 0113.616 0 31.364 31.364 0 016.599 2.434 6.114 6.114 0 012.436 2.28c.612.995.917 2.086.916 3.272v1.676c0 1.152-.41 2.139-1.23 2.96-.82.82-1.806 1.23-2.96 1.23H4.899c-1.152 0-2.138-.41-2.958-1.23-.82-.82-1.23-1.807-1.232-2.96z" fill="#8E95A0"/></svg>