<svg width="49" height="49" fill="none" xmlns="http://www.w3.org/2000/svg"><path d="M24.49.738C11.195.738.42 11.514.42 24.808c0 13.293 10.776 24.07 24.07 24.07 13.293 0 24.069-10.777 24.069-24.07 0-13.294-10.776-24.07-24.07-24.07zm9.256 27.156s2.129 2.101 2.653 3.077a.196.196 0 01.027.05c.213.356.265.637.158.845-.175.346-.777.516-.983.531h-3.76c-.261 0-.808-.067-1.47-.524-.509-.356-1.01-.94-1.499-1.51-.73-.847-1.361-1.579-1.998-1.579a.755.755 0 00-.238.038c-.482.155-1.099.842-1.099 2.672 0 .572-.45.9-.77.9h-1.722c-.587 0-3.643-.205-6.35-3.06-3.315-3.498-6.299-10.514-6.324-10.579-.188-.453.2-.697.624-.697h3.799c.506 0 .672.309.787.582.136.318.632 1.584 1.447 3.009 1.321 2.321 2.131 3.264 2.78 3.264a.754.754 0 00.349-.09c.847-.472.69-3.493.652-4.12 0-.117-.003-1.351-.437-1.943-.31-.428-.84-.591-1.16-.652.13-.179.3-.324.499-.423.581-.291 1.63-.334 2.67-.334h.579c1.128.015 1.42.088 1.828.19.827.199.845.733.772 2.56a39.822 39.822 0 00-.045 1.798l-.008.482c-.025.93-.055 1.985.602 2.42a.502.502 0 00.286.082c.228 0 .915 0 2.775-3.192a25.074 25.074 0 001.492-3.194c.038-.065.148-.266.279-.343a.752.752 0 01.31-.073h4.466c.486 0 .82.073.882.26.11.299-.02 1.21-2.058 3.97l-.91 1.2c-1.848 2.422-1.848 2.545.115 4.383z" fill="#4065D6"/></svg>