<svg width="173" height="35" fill="none" xmlns="http://www.w3.org/2000/svg"><path d="M51.51 26.485h3.404v.645h-2.676v4.515h-.727v-5.16zm4.169 4.099v-2.847h-.727v3.909h.65l2.41-2.846v2.846h.727v-3.909h-.65l-2.41 2.847zm4.436 1.061h.727v-3.263h2.217v3.263h.726v-3.908h-3.632v3.908h-.038zm8.337-2.997c.153.304.23.646.23 1.063v.227h-3.175c.039.19.077.342.154.493.114.19.306.38.497.494.23.114.459.152.765.152.23 0 .459-.038.65-.114.191-.076.344-.19.497-.341l.383.455c-.192.19-.383.38-.65.455-.269.113-.575.151-.88.151-.42 0-.803-.075-1.109-.265-.305-.19-.574-.417-.726-.72-.191-.305-.268-.646-.268-1.025 0-.38.077-.72.268-1.025.153-.303.42-.531.688-.72.306-.152.65-.266.995-.266.382 0 .726.075.994.266.304.189.533.417.687.72zm-.42.759c0-.19-.077-.34-.153-.493a1.312 1.312 0 00-.46-.455c-.19-.113-.42-.151-.649-.151-.23 0-.46.038-.65.15a1.31 1.31 0 00-.459.456 1.875 1.875 0 00-.153.493h2.523zm5.621-.759c.191.304.268.646.268 1.025 0 .38-.077.759-.268 1.063-.191.303-.42.531-.689.683-.306.152-.65.265-1.033.265-.344 0-.612-.075-.88-.227a1.712 1.712 0 01-.497-.418v2.011h-.726v-5.313h.688v.608c.154-.19.306-.341.498-.418.268-.152.574-.228.917-.228.383 0 .727.076 1.033.266.268.152.535.38.689.683zm-.46 1.025a1.44 1.44 0 00-.19-.72c-.115-.19-.268-.38-.46-.494-.19-.113-.42-.151-.688-.151-.229 0-.458.038-.688.15a1.155 1.155 0 00-.459.494 1.45 1.45 0 00-.19.72c0 .266.076.532.19.721.115.19.268.38.459.494.191.114.42.152.689.152.267 0 .496-.038.687-.152.192-.114.345-.266.46-.494.152-.19.19-.455.19-.72zm4.054.682l-1.53-2.618h-.726v3.908h.65V28.8l1.453 2.428h.306l1.453-2.39v2.845h.65v-3.908h-.688l-1.568 2.58zm6.31-2.276c.306.266.42.645.42 1.176v2.353h-.688v-.531c-.115.152-.23.265-.383.341-.228.152-.534.19-.879.19-.306 0-.535-.038-.764-.152-.23-.114-.383-.227-.498-.417a1.141 1.141 0 01-.19-.607c0-.228.037-.418.152-.57.115-.19.268-.303.497-.417.23-.114.536-.152.918-.152h1.109v-.152c0-.304-.077-.531-.268-.684-.191-.151-.42-.227-.803-.227-.23 0-.459.038-.688.114-.23.075-.421.19-.574.304l-.306-.532a2.2 2.2 0 01.726-.38 3.31 3.31 0 01.88-.113c.613.076 1.033.19 1.339.456zm-.268 1.821H82.18c-.344 0-.611.076-.726.19a.607.607 0 00-.191.418c0 .19.076.341.23.455.152.114.382.19.649.19s.497-.076.689-.19a.985.985 0 00.42-.531V29.9h.038zm5.813-1.252c.191.304.267.646.267 1.025 0 .38-.076.759-.267 1.063a1.98 1.98 0 01-.689.683c-.306.152-.65.265-1.032.265-.345 0-.612-.075-.88-.227a1.705 1.705 0 01-.497-.418v2.011h-.689v-5.313h.689v.608c.153-.19.306-.341.497-.418.268-.152.574-.228.918-.228.382 0 .727.076 1.033.266.267.152.496.38.65.683zm-.459 1.025c0-.266-.076-.532-.191-.72-.116-.19-.268-.38-.46-.494-.19-.113-.42-.151-.687-.151-.23 0-.46.038-.689.15a1.156 1.156 0 00-.459.494 1.44 1.44 0 00-.191.72c0 .266.076.532.191.721.115.19.267.38.46.494.19.114.42.152.688.152.267 0 .496-.038.688-.152.192-.114.344-.266.459-.494.153-.19.191-.455.191-.72zm5.353-1.936h-.764L91.97 29.37h-.841v-1.632h-.727v3.909h.727v-1.631h.802l1.339 1.631h.842l-1.607-2.01 1.491-1.899zm4.054.911c.154.304.229.646.229 1.063v.227h-3.173c.038.19.077.342.153.493.115.19.306.38.498.494.228.114.458.152.763.152.23 0 .459-.038.65-.114a1.44 1.44 0 00.497-.341l.383.455c-.192.19-.383.38-.65.455-.268.113-.574.151-.88.151-.42 0-.803-.075-1.108-.265-.306-.19-.574-.417-.726-.72-.192-.305-.268-.646-.268-1.025 0-.38.076-.72.268-1.025.152-.303.42-.531.688-.72.306-.152.65-.266.994-.266.383 0 .726.075.995.266.304.189.534.417.687.72zm-.42.759c0-.19-.077-.34-.154-.493a1.314 1.314 0 00-.459-.455c-.19-.113-.42-.151-.65-.151-.23 0-.458.038-.65.15a1.318 1.318 0 00-.458.456 1.894 1.894 0 00-.153.493h2.524zm.956-1.062h1.453v3.263h.726v-3.263h1.454v-.608h-3.595v.608h-.038zM108.374 31h.611v1.517h-.649v-.91h-3.29v.91h-.689V31h.155a.496.496 0 00.382-.152c.076-.114.152-.266.229-.456.039-.19.076-.417.115-.644.038-.228.038-.494.075-.72l.076-1.33h3.06V31h-.075zm-.726-2.656h-1.721l-.038.758c0 .228-.04.494-.04.72-.037.229-.037.456-.113.646-.039.19-.116.342-.192.455l-.115.114h2.18v-2.694h.039zm2.562.834c0 .227-.039.455-.039.684-.039.227-.039.417-.114.606a.871.871 0 01-.191.418c-.078.114-.23.152-.383.152h-.191l-.039.606c.076.038.154.038.23.038h.192c.228 0 .42-.075.535-.19.115-.114.267-.303.344-.531a4.08 4.08 0 00.191-.796c.039-.304.076-.608.076-.95l.039-.872h1.683v3.263h.725V27.7h-3.02l-.038 1.48zm5.889-1.442h1.721v3.909h-.65v-1.252h-1.223l-.88 1.252h-.765l.957-1.328a.87.87 0 01-.458-.228c-.307-.227-.459-.53-.459-.949 0-.455.153-.796.459-1.024.38-.266.801-.38 1.298-.38zm.038.608c-.343 0-.574.075-.765.19-.192.113-.267.303-.267.606 0 .494.343.76.993.76h1.11v-1.556h-1.071zm5.125 3.3h.726v-3.263h2.18v-.607h-2.907l.001 3.87zm6.768-2.997c.153.304.229.646.229 1.063v.227h-3.173c.037.19.075.342.153.493.115.19.306.38.497.494.229.114.458.152.765.152.228 0 .458-.038.649-.114a1.46 1.46 0 00.498-.341l.382.455c-.192.19-.382.38-.651.455-.267.113-.573.151-.878.151-.422 0-.804-.075-1.109-.265-.305-.19-.574-.417-.727-.72-.191-.305-.267-.646-.267-1.025 0-.38.076-.72.267-1.025.154-.303.422-.531.689-.72.307-.152.65-.266.994-.266.382 0 .727.075.994.266.306.189.535.417.688.72zm-.42.759c0-.19-.076-.34-.153-.493a1.316 1.316 0 00-.459-.455c-.191-.113-.421-.151-.65-.151-.229 0-.459.038-.651.15a1.32 1.32 0 00-.458.456 1.845 1.845 0 00-.152.493h2.523zm3.632-2.201c.345 0 .65-.075.842-.265a.992.992 0 00.306-.76h-.497a.62.62 0 01-.191.455c-.114.115-.268.153-.497.153-.191 0-.382-.038-.498-.153a.626.626 0 01-.191-.454h-.497c0 .341.114.57.307.759.266.189.572.265.916.265zm-1.109 3.378v-2.847h-.726v3.909h.65l2.408-2.846v2.846h.727v-3.909h-.649l-2.41 2.847zm6.731-.229l-1.529-2.618h-.727v3.908h.65V28.8l1.453 2.428h.306l1.454-2.39v2.845h.65v-3.908h-.65l-1.607 2.58zm6.96-1.707c.153.304.228.646.228 1.063v.227h-3.173c.039.19.076.342.153.493.115.19.306.38.497.494.23.114.459.152.765.152a1.8 1.8 0 00.65-.114c.192-.076.344-.19.497-.341l.383.455c-.192.19-.383.38-.65.455-.269.113-.574.151-.88.151-.421 0-.804-.075-1.109-.265-.305-.19-.574-.417-.726-.72-.192-.305-.268-.646-.268-1.025 0-.38.076-.72.268-1.025.153-.303.421-.531.689-.72.306-.152.649-.266.993-.266.383 0 .727.075.995.266.305.189.535.417.688.72zm-.421.759c0-.19-.076-.34-.152-.493a1.316 1.316 0 00-.459-.455c-.192-.113-.422-.151-.651-.151-.229 0-.459.038-.65.15a1.312 1.312 0 00-.458.456 1.845 1.845 0 00-.153.493h2.523zm5.621-.759c.192.304.268.646.268 1.025 0 .38-.076.759-.268 1.063a1.97 1.97 0 01-.688.683c-.307.152-.65.265-1.033.265a1.68 1.68 0 01-.879-.227 1.694 1.694 0 01-.497-.418v2.011h-.727v-5.313h.689v.608c.153-.19.305-.341.497-.418a1.83 1.83 0 01.918-.228c.383 0 .726.076 1.033.266.268.152.496.38.687.683zm-.459 1.025c0-.266-.075-.532-.191-.72-.115-.19-.268-.38-.458-.494-.192-.113-.421-.151-.689-.151a1.53 1.53 0 00-.688.15 1.152 1.152 0 00-.459.494 1.44 1.44 0 00-.192.72c0 .266.077.532.192.721.114.19.268.38.459.494.19.114.42.152.688.152.268 0 .497-.038.689-.152.191-.114.343-.266.458-.494a1.44 1.44 0 00.191-.72zm5.201-1.025c.193.304.268.646.268 1.025 0 .38-.075.72-.268 1.025-.191.303-.42.531-.725.72-.307.19-.651.265-1.033.265-.382 0-.765-.075-1.071-.265a2.173 2.173 0 01-.726-.72c-.192-.305-.268-.646-.268-1.025 0-.38.076-.72.268-1.025.191-.303.42-.531.726-.72.306-.152.65-.266 1.071-.266.382 0 .726.075 1.033.266.344.189.573.417.725.72zm-.42 1.025c0-.266-.039-.532-.154-.72-.115-.19-.267-.38-.458-.494-.192-.113-.421-.151-.689-.151a1.43 1.43 0 00-.688.15 1.164 1.164 0 00-.459.494 1.45 1.45 0 000 1.441c.115.19.269.38.459.494.191.114.421.152.688.152.268 0 .497-.038.689-.152.192-.114.343-.266.458-.494.077-.19.154-.455.154-.72zm5.2.873c0 .34-.115.607-.381.796-.268.19-.651.266-1.186.266h-1.874v-3.909h1.835c.458 0 .803.076 1.071.266.268.19.383.418.383.72 0 .304-.115.57-.383.721-.075.039-.153.114-.268.153.192.038.306.113.421.19.267.227.382.454.382.797zm-2.754-1.139h1.072c.268 0 .498-.038.612-.152.114-.114.229-.227.229-.418 0-.19-.076-.34-.229-.417a1.32 1.32 0 00-.612-.152h-1.072v1.139zm2.028 1.1c0-.19-.077-.34-.192-.455-.152-.114-.344-.152-.65-.152h-1.186v1.177h1.147c.307 0 .537-.038.65-.152.154-.076.231-.227.231-.418zm11.587-3.49c.114.189.153.379.153.607 0 .227-.039.417-.153.606-.115.19-.268.304-.458.418-.191.114-.421.152-.689.152-.268 0-.497-.038-.689-.152-.191-.114-.343-.228-.458-.418a1.105 1.105 0 01-.153-.607c0-.227.038-.418.153-.607.115-.189.267-.304.458-.417.192-.114.421-.152.689-.152.268 0 .498.038.689.152.19.076.343.228.458.417zm-.345.607a.779.779 0 00-.803-.797.87.87 0 00-.612.228.771.771 0 00-.229.57c0 .226.077.417.229.53.154.152.344.228.612.228a.78.78 0 00.574-.228c.153-.114.229-.304.229-.53zm-1.988 2.239h2.333v-.494h-2.333v.494zm-1.567.455l-3.098-3.833h-.612v5.161h.726v-3.832l3.098 3.832h.611v-5.16h-.725v3.832zm4.703-3.833v.645h1.186v4.515h.727v-5.16h-1.913zM125.125 3.186l.039 15.86h-2.18l-.039-11.572-5.774 9.638h-1.032l-5.813-9.563v11.497h-2.18V3.186h1.875l6.654 11.156 6.578-11.156h1.872zm11.434 4.932c.879.797 1.339 2.011 1.339 3.68v7.248h-2.065v-1.594c-.306.455-.688.797-1.224 1.1-.726.418-1.643.607-2.753.607-.919 0-1.683-.152-2.371-.455a3.7 3.7 0 01-1.569-1.252c-.382-.531-.535-1.138-.535-1.821 0-.645.153-1.252.458-1.784.305-.531.804-.949 1.53-1.252.726-.303 1.645-.492 2.868-.492h3.48v-.418c0-.911-.268-1.632-.804-2.124-.534-.494-1.338-.76-2.447-.76a6.59 6.59 0 00-2.103.342c-.689.227-1.262.53-1.721.948l-.917-1.63c.611-.494 1.375-.873 2.256-1.14.879-.264 1.796-.378 2.753-.378 1.646-.039 2.908.379 3.825 1.175zm-.842 5.578h-3.365c-1.109 0-1.835.19-2.218.532-.382.38-.573.796-.573 1.328 0 .607.229 1.063.726 1.404.458.341 1.109.531 1.95.531.842 0 1.529-.19 2.142-.531.611-.38 1.07-.873 1.338-1.594v-1.67zm4.742 5.35h2.18V8.953h6.73V7.057h-8.91v11.99zm18.394-10.928c.879.797 1.339 2.011 1.339 3.68v7.248h-2.065v-1.594c-.306.455-.688.797-1.224 1.1-.727.418-1.644.607-2.753.607-.919 0-1.683-.152-2.372-.455a3.697 3.697 0 01-1.568-1.252c-.382-.531-.535-1.138-.535-1.821 0-.645.153-1.252.458-1.784.307-.531.804-.949 1.53-1.252.726-.303 1.644-.492 2.868-.492h3.48v-.418c0-.911-.268-1.632-.803-2.124-.536-.494-1.339-.76-2.448-.76a6.59 6.59 0 00-2.103.342c-.689.227-1.262.53-1.721.948l-.918-1.63c.612-.494 1.376-.873 2.257-1.14.879-.264 1.797-.378 2.753-.378 1.646-.039 2.946.379 3.825 1.175zm-.841 5.578h-3.365c-1.108 0-1.835.19-2.218.532-.382.38-.573.796-.573 1.328 0 .607.229 1.063.725 1.404.459.341 1.109.531 1.951.531.842 0 1.529-.19 2.141-.531.611-.38 1.07-.873 1.339-1.594v-1.67zm12.964-.34c-.382-.266-.841-.456-1.376-.608.076-.038.114-.038.191-.075.612-.266 1.109-.607 1.454-1.063.382-.455.535-.95.535-1.518 0-.683-.23-1.252-.726-1.783-.498-.493-1.147-.873-1.951-1.138-.842-.266-1.759-.38-2.791-.341a8.05 8.05 0 00-2.104.303c-.726.19-1.414.456-2.141.797l.613 1.708c.649-.304 1.3-.57 1.911-.72a10.546 10.546 0 011.874-.266 6.94 6.94 0 011.644.19c.459.151.842.341 1.072.606.268.266.382.57.382.911 0 .341-.114.607-.344.873-.229.266-.536.417-.918.57-.382.113-.842.19-1.376.19h-2.066v1.555h2.18c.88 0 1.607.152 2.103.455.498.304.766.72.766 1.29 0 .38-.154.721-.422 1.025-.267.304-.65.532-1.185.683a6.15 6.15 0 01-1.797.266 8.95 8.95 0 01-2.257-.304 7.258 7.258 0 01-1.989-.835l-.65 1.67c.689.454 1.454.758 2.333 1.024a10.59 10.59 0 002.676.341c1.071 0 2.027-.152 2.831-.455.841-.303 1.49-.72 1.989-1.29.496-.57.726-1.177.726-1.897-.04-.913-.422-1.634-1.187-2.165z" fill="#132539"/><path d="M63.213 3.186h2.103v15.86H63.06V6.83l-9.484 12.218h-2.103V3.186h2.256v12.218l9.484-12.218zm5.353 15.86h2.18V8.953h6.73V7.057h-8.91v11.99zm21.95-9.22c.536.91.804 1.973.804 3.187 0 1.214-.268 2.315-.803 3.225a5.943 5.943 0 01-2.18 2.163c-.918.531-1.95.759-3.136.759a5.694 5.694 0 01-2.753-.683c-.574-.304-1.07-.759-1.492-1.252v6.223h-2.142V7.057h2.104v1.896c.42-.57.917-1.024 1.53-1.328.841-.455 1.759-.683 2.791-.683 1.185 0 2.257.266 3.136.759a5.231 5.231 0 012.142 2.125zm-1.414 3.187c0-.872-.192-1.594-.535-2.239-.345-.645-.842-1.1-1.454-1.48a4.22 4.22 0 00-2.103-.53c-.765 0-1.453.19-2.065.53a3.625 3.625 0 00-1.453 1.48c-.345.645-.536 1.366-.536 2.239 0 .835.191 1.594.536 2.239a3.62 3.62 0 001.453 1.48 4.18 4.18 0 002.065.531c.765 0 1.491-.19 2.103-.531a3.634 3.634 0 001.454-1.48c.382-.645.535-1.366.535-2.239zm16.405 0c0 1.176-.268 2.239-.803 3.187-.536.912-1.3 1.632-2.257 2.163-.956.531-2.026.797-3.212.797-1.225 0-2.294-.266-3.25-.797-.957-.531-1.683-1.252-2.257-2.2a6.154 6.154 0 01-.841-3.15c0-1.176.267-2.239.84-3.187.537-.91 1.301-1.631 2.258-2.163.956-.531 2.025-.797 3.25-.797 1.186 0 2.294.266 3.212.797.957.532 1.683 1.252 2.257 2.163.536.949.803 2.011.803 3.187zm-2.217 0c0-.872-.192-1.594-.536-2.239-.344-.645-.841-1.1-1.453-1.48a4.22 4.22 0 00-2.103-.53 4.18 4.18 0 00-2.066.53 3.634 3.634 0 00-1.453 1.48c-.382.645-.535 1.366-.535 2.239 0 .835.19 1.594.535 2.239.383.645.842 1.138 1.453 1.48a4.18 4.18 0 002.066.531 4.33 4.33 0 002.103-.531 3.633 3.633 0 001.453-1.48c.383-.645.536-1.366.536-2.239z" fill="#4AB8E6"/><path d="M27.725 31.797c-.191-.455-.689-.645-1.148-.493-1.377.531-2.715.872-4.053.986v-2.428c2.141-.532 4.397-2.505 4.397-4.137 0-1.896-2.408-3.414-5.391-3.414s-5.392 1.518-5.392 3.414c0 1.632 2.256 3.643 4.398 4.137v2.428c-1.34-.114-2.677-.455-4.054-.986-.458-.19-.957.038-1.148.493-.191.455.039.948.498 1.137 1.912.76 3.823 1.14 5.735 1.14 1.913 0 3.824-.38 5.737-1.14.383-.189.612-.72.42-1.137z" fill="#132539"/><path d="M33.69 7.93c2.676 1.48 4.933 3.453 6.616 5.768a7.777 7.777 0 002.676-5.881C42.982 3.49 39.464 0 35.105 0c-3.25 0-6.042 1.973-7.266 4.781-1.989-.683-4.13-1.024-6.348-1.024-2.217 0-4.36.38-6.348 1.024A7.855 7.855 0 007.878 0C3.518 0 0 3.491 0 7.817a7.775 7.775 0 002.677 5.88c1.644-2.314 3.9-4.288 6.615-5.767a19.532 19.532 0 00-6.998 11.117c-.611 2.885-.994 7.779 3.71 8.235 7.8.759 9.14-7.969 15.449-7.969 6.31 0 7.648 8.728 15.45 7.969 4.742-.455 4.359-5.388 3.709-8.235C39.693 14.61 37.17 10.7 33.69 7.93zm-19.962 9.41h-1.3v1.29c0 .608-.497 1.1-1.109 1.1a1.105 1.105 0 01-1.108-1.1v-1.29h-1.3a1.105 1.105 0 01-1.11-1.1c0-.606.498-1.1 1.11-1.1h1.3v-1.29c0-.607.497-1.1 1.108-1.1.612 0 1.11.493 1.11 1.1v1.29h1.3c.61 0 1.108.494 1.108 1.1 0 .607-.497 1.1-1.109 1.1zm17.743-4.742c.727 0 1.34.569 1.34 1.328 0 .759-.574 1.328-1.34 1.328-.726 0-1.338-.57-1.338-1.328 0-.76.612-1.329 1.338-1.329zm-2.37 4.97c-.726 0-1.338-.57-1.338-1.328 0-.759.573-1.328 1.338-1.328.726 0 1.338.57 1.338 1.328 0 .758-.611 1.328-1.338 1.328zm2.37 2.352a1.325 1.325 0 01-1.338-1.327c0-.759.574-1.328 1.338-1.328.727 0 1.34.57 1.34 1.328 0 .759-.613 1.328-1.34 1.328zm2.372-2.352c-.726 0-1.338-.57-1.338-1.328 0-.759.574-1.328 1.338-1.328.727 0 1.339.57 1.339 1.328 0 .758-.612 1.328-1.339 1.328z" fill="#4AB8E6"/></svg>