<svg width="173" height="35" viewBox="0 0 173 35" fill="none" xmlns="http://www.w3.org/2000/svg">
<path d="M51.5107 26.4846H54.9143V27.13H52.2377V31.6453H51.5115L51.5107 26.4846ZM55.6788 30.5838V27.7374H54.9525V31.646H55.6029L58.0118 28.8003V31.646H58.7387V27.7374H58.0883L55.6788 30.5838ZM60.1152 31.6453H60.8415V28.382H63.059V31.6453H63.7852V27.7367H60.1528V31.6453H60.1152ZM68.4519 28.6484C68.605 28.9521 68.6815 29.2938 68.6815 29.7107C68.6815 29.7493 68.6815 29.7865 68.6815 29.8246C68.6815 29.8632 68.6815 29.9004 68.6815 29.9384H65.5075C65.5458 30.1282 65.584 30.2801 65.6606 30.4312C65.7753 30.6217 65.9666 30.8108 66.1579 30.9247C66.3875 31.0386 66.617 31.0766 66.9231 31.0766C67.1526 31.0766 67.3815 31.0386 67.5727 30.9627C67.7641 30.8875 67.917 30.7728 68.0701 30.6217L68.4527 31.0766C68.2614 31.2671 68.0701 31.4562 67.8023 31.5321C67.5345 31.6453 67.2284 31.6832 66.9231 31.6832C66.5023 31.6832 66.1197 31.608 65.8143 31.4181C65.5089 31.2284 65.2404 31.0006 65.0881 30.6977C64.8968 30.3932 64.8203 30.0523 64.8203 29.6727C64.8203 29.2937 64.8968 28.9521 65.0881 28.6484C65.2411 28.3447 65.5089 28.117 65.776 27.9279C66.0821 27.776 66.4264 27.6621 66.7707 27.6621C67.1533 27.6621 67.497 27.7374 67.7648 27.9279C68.0694 28.117 68.2982 28.3447 68.4519 28.6484ZM68.0311 29.407C68.0311 29.2172 67.9553 29.0661 67.8788 28.9142C67.7641 28.7243 67.611 28.5725 67.4198 28.4587C67.2284 28.3455 66.9989 28.3075 66.77 28.3075C66.5405 28.3075 66.3109 28.3455 66.1197 28.4587C65.9283 28.5725 65.7753 28.7251 65.6613 28.9142C65.5848 29.0661 65.5465 29.2179 65.5082 29.407H68.0311ZM73.653 28.6484C73.8443 28.9521 73.9207 29.2937 73.9207 29.6727C73.9207 30.0523 73.8443 30.4319 73.653 30.7356C73.4616 31.0393 73.2321 31.267 72.9643 31.4189C72.6582 31.5708 72.3139 31.6839 71.9313 31.6839C71.587 31.6839 71.3192 31.6087 71.0515 31.4569C70.8601 31.343 70.7078 31.2297 70.5541 31.0393V33.0505H69.8279V27.7374H70.5165V28.3448C70.6696 28.1542 70.8225 28.0038 71.0138 27.9271C71.2816 27.7753 71.5877 27.6994 71.9313 27.6994C72.3139 27.6994 72.6582 27.7753 72.9643 27.9651C73.2321 28.1169 73.4992 28.3447 73.653 28.6484ZM73.1938 29.6727C73.1938 29.407 73.1173 29.1412 73.0025 28.9521C72.8878 28.763 72.7347 28.5725 72.5434 28.4587C72.3522 28.3455 72.1233 28.3075 71.8555 28.3075C71.626 28.3075 71.3971 28.3455 71.1669 28.4587C70.9756 28.5725 70.8225 28.7251 70.7085 28.9521C70.5937 29.1419 70.5172 29.407 70.5172 29.6727C70.5172 29.9384 70.5937 30.2041 70.7085 30.3932C70.8233 30.5838 70.9756 30.7729 71.1669 30.8868C71.3581 31.0006 71.5877 31.0386 71.8555 31.0386C72.1233 31.0386 72.3522 31.0006 72.5434 30.8868C72.7347 30.7729 72.8878 30.621 73.0025 30.3932C73.1548 30.2035 73.1938 29.9384 73.1938 29.6727ZM77.2471 30.3553L75.7174 27.7367H74.9912V31.6453H75.6409V28.7996L77.094 31.2284H77.4001L78.8532 28.8375V31.6832H79.5035V27.7753H78.8149L77.2471 30.3553ZM83.5569 28.079C83.8629 28.3447 83.9777 28.7243 83.9777 29.2551V31.608H83.289V31.0766C83.1743 31.2291 83.0594 31.3423 82.9064 31.4181C82.6776 31.57 82.3716 31.608 82.0272 31.608C81.7211 31.608 81.4923 31.57 81.2627 31.4562C81.0332 31.3423 80.8801 31.2291 80.7653 31.0386C80.6506 30.8488 80.5741 30.659 80.5741 30.4319C80.5741 30.2041 80.6124 30.0144 80.7271 29.8625C80.8419 29.672 80.9949 29.5588 81.2244 29.4449C81.454 29.331 81.7601 29.2931 82.1419 29.2931H83.2507V29.1405C83.2507 28.8368 83.1743 28.6098 82.9829 28.4572C82.7917 28.306 82.5621 28.2302 82.1795 28.2302C81.9507 28.2302 81.7211 28.2681 81.4916 28.3441C81.262 28.4193 81.0707 28.5338 80.9177 28.6478L80.6117 28.1163C80.8029 27.9644 81.0707 27.8126 81.3379 27.7367C81.6056 27.6614 81.9117 27.6235 82.2178 27.6235C82.8307 27.6994 83.2507 27.8132 83.5569 28.079ZM83.289 29.9004H82.1802C81.8359 29.9004 81.5689 29.9764 81.4541 30.0903C81.3393 30.2041 81.2627 30.3559 81.2627 30.5078C81.2627 30.6984 81.3386 30.8495 81.4923 30.9627C81.6446 31.0766 81.8749 31.1532 82.1419 31.1532C82.409 31.1532 82.6393 31.0773 82.8307 30.9627C83.0219 30.8495 83.1743 30.659 83.2515 30.4319V29.9004H83.289ZM89.1021 28.6484C89.2934 28.9521 89.3692 29.2937 89.3692 29.6727C89.3692 30.0523 89.2934 30.4319 89.1021 30.7356C88.91 31.0393 88.6806 31.267 88.4134 31.4189C88.1067 31.5708 87.7631 31.6839 87.3805 31.6839C87.0362 31.6839 86.769 31.6087 86.5012 31.4569C86.3099 31.343 86.157 31.2297 86.0039 31.0393V33.0505H85.3153V27.7374H86.0039V28.3448C86.157 28.1542 86.3099 28.0038 86.5012 27.9271C86.769 27.7753 87.0752 27.6994 87.4188 27.6994C87.8013 27.6994 88.1456 27.7753 88.4517 27.9651C88.7195 28.1169 88.9483 28.3447 89.1021 28.6484ZM88.643 29.6727C88.643 29.407 88.5672 29.1412 88.4517 28.9521C88.3362 28.763 88.1839 28.5725 87.9926 28.4587C87.8014 28.3455 87.5717 28.3075 87.3046 28.3075C87.0751 28.3075 86.8456 28.3455 86.6161 28.4587C86.4241 28.5725 86.2716 28.7251 86.157 28.9521C86.0422 29.1419 85.9656 29.407 85.9656 29.6727C85.9656 29.9384 86.0422 30.2041 86.157 30.3932C86.2716 30.5838 86.4241 30.7729 86.6161 30.8868C86.8073 31.0006 87.0362 31.0386 87.3046 31.0386C87.5717 31.0386 87.8014 31.0006 87.9926 30.8868C88.1846 30.7729 88.337 30.621 88.4517 30.3932C88.6047 30.2035 88.643 29.9384 88.643 29.6727ZM93.9963 27.7374H93.2315L91.9698 29.369H91.1288V27.7374H90.4025V31.646H91.1288V30.015H91.9313L93.27 31.646H94.112L92.5052 29.6355L93.9963 27.7374ZM98.0502 28.6484C98.2035 28.9521 98.2789 29.2938 98.2789 29.7107C98.2789 29.7493 98.2789 29.7865 98.2789 29.8246C98.2789 29.8632 98.2789 29.9004 98.2789 29.9384H95.1055C95.1441 30.1282 95.1826 30.2801 95.2589 30.4312C95.3736 30.6217 95.5646 30.8108 95.7565 30.9247C95.9852 31.0386 96.2147 31.0766 96.5205 31.0766C96.75 31.0766 96.9787 31.0386 97.1706 30.9627C97.3625 30.8875 97.5149 30.7728 97.6673 30.6217L98.0502 31.0766C97.8583 31.2671 97.6673 31.4562 97.4001 31.5321C97.132 31.6453 96.8262 31.6832 96.5205 31.6832C96.0999 31.6832 95.7171 31.608 95.4122 31.4181C95.1064 31.2284 94.8383 31.0006 94.6859 30.6977C94.494 30.3932 94.4178 30.0523 94.4178 29.6727C94.4178 29.2937 94.494 28.9521 94.6859 28.6484C94.8383 28.3447 95.1064 28.117 95.3745 27.9279C95.6803 27.776 96.0237 27.6621 96.368 27.6621C96.7509 27.6621 97.0944 27.7374 97.3625 27.9279C97.6673 28.117 97.8969 28.3447 98.0502 28.6484ZM97.6297 29.407C97.6297 29.2172 97.5526 29.0661 97.4763 28.9142C97.3616 28.7243 97.2082 28.5725 97.0172 28.4587C96.8262 28.3455 96.5967 28.3075 96.3671 28.3075C96.1376 28.3075 95.9089 28.3455 95.7171 28.4587C95.5261 28.5725 95.3736 28.7251 95.2589 28.9142C95.1826 29.0661 95.1441 29.2179 95.1055 29.407H97.6297ZM98.5855 28.3448H100.039V31.608H100.765V28.3448H102.219V27.7374H98.6241V28.3448H98.5855ZM108.375 31.0006H108.986V32.5184H108.337V31.6073H105.047V32.5184H104.358V31.0006H104.513C104.665 31.0006 104.78 30.9619 104.895 30.8488C104.971 30.7349 105.047 30.5831 105.124 30.3932C105.163 30.2035 105.2 29.9764 105.239 29.7486C105.277 29.5209 105.277 29.2551 105.314 29.0281L105.39 27.6994H108.45V31.0006H108.375ZM107.649 28.3448H105.928L105.89 29.1033C105.89 29.331 105.85 29.5967 105.85 29.8238C105.813 30.0516 105.813 30.2794 105.737 30.4692C105.698 30.659 105.621 30.8108 105.545 30.924C105.506 30.9619 105.468 30.9999 105.43 31.0379H107.61V28.3441L107.649 28.3448ZM110.211 29.1791C110.211 29.4063 110.172 29.634 110.172 29.8625C110.133 30.0895 110.133 30.2801 110.058 30.4692C110.019 30.659 109.943 30.8101 109.867 30.8868C109.789 31.0006 109.637 31.0386 109.484 31.0386C109.445 31.0386 109.445 31.0386 109.408 31.0386C109.369 31.0386 109.331 31.0386 109.293 31.0386L109.254 31.6453C109.33 31.6832 109.408 31.6832 109.484 31.6832C109.56 31.6832 109.637 31.6832 109.676 31.6832C109.904 31.6832 110.096 31.608 110.211 31.4934C110.326 31.3788 110.478 31.1898 110.555 30.9619C110.631 30.7349 110.708 30.4692 110.746 30.1655C110.785 29.8618 110.822 29.5581 110.822 29.2164L110.861 28.3441H112.544V31.6073H113.269V27.6987H110.249L110.211 29.1791ZM116.1 27.7374H117.821V31.646H117.171V30.394H116.024C115.986 30.394 115.986 30.394 115.948 30.394L115.068 31.646H114.303L115.26 30.318C115.068 30.2801 114.917 30.2041 114.802 30.0903C114.495 29.8632 114.343 29.5595 114.343 29.1412C114.343 28.6864 114.496 28.3448 114.802 28.1169C115.182 27.8513 115.603 27.7374 116.1 27.7374ZM116.138 28.3448C115.795 28.3448 115.564 28.4199 115.373 28.5345C115.181 28.6484 115.106 28.8382 115.106 29.1412C115.106 29.6347 115.449 29.9004 116.099 29.9004H117.209V28.3448H116.138ZM121.263 31.6453H121.989V28.382H124.169V27.7753H121.262L121.263 31.6453ZM128.031 28.6484C128.184 28.9521 128.26 29.2938 128.26 29.7107C128.26 29.7493 128.26 29.7865 128.26 29.8246C128.26 29.8632 128.26 29.9004 128.26 29.9384H125.087C125.124 30.1282 125.162 30.2801 125.24 30.4312C125.355 30.6217 125.546 30.8108 125.737 30.9247C125.966 31.0386 126.195 31.0766 126.502 31.0766C126.73 31.0766 126.96 31.0386 127.151 30.9627C127.343 30.8875 127.495 30.7728 127.649 30.6217L128.031 31.0766C127.839 31.2671 127.649 31.4562 127.38 31.5321C127.113 31.6453 126.807 31.6832 126.502 31.6832C126.08 31.6832 125.698 31.608 125.393 31.4181C125.088 31.2284 124.819 31.0006 124.666 30.6977C124.475 30.3932 124.399 30.0523 124.399 29.6727C124.399 29.2937 124.475 28.9521 124.666 28.6484C124.82 28.3447 125.088 28.117 125.355 27.9279C125.662 27.776 126.005 27.6621 126.349 27.6621C126.731 27.6621 127.076 27.7374 127.343 27.9279C127.649 28.117 127.878 28.3447 128.031 28.6484ZM127.611 29.407C127.611 29.2172 127.535 29.0661 127.458 28.9142C127.343 28.7243 127.19 28.5725 126.999 28.4587C126.808 28.3455 126.578 28.3075 126.349 28.3075C126.12 28.3075 125.89 28.3455 125.698 28.4587C125.507 28.5725 125.355 28.7251 125.24 28.9142C125.164 29.0661 125.125 29.2179 125.088 29.407H127.611ZM131.243 27.2059C131.588 27.2059 131.893 27.1307 132.085 26.9409C132.277 26.7511 132.391 26.5233 132.391 26.1816H131.894C131.894 26.3722 131.818 26.5233 131.703 26.6364C131.589 26.751 131.435 26.789 131.206 26.789C131.015 26.789 130.824 26.751 130.708 26.6364C130.594 26.5233 130.517 26.3715 130.517 26.1816H130.02C130.02 26.5233 130.134 26.7517 130.327 26.9409C130.593 27.13 130.899 27.2059 131.243 27.2059ZM130.134 30.5838V27.7374H129.408V31.646H130.058L132.466 28.8003V31.646H133.193V27.7374H132.544L130.134 30.5838ZM136.865 30.3553L135.336 27.7367H134.609V31.6453H135.259V28.7996L136.712 31.2284H137.018L138.472 28.8375V31.6832H139.122V27.7753H138.472L136.865 30.3553ZM143.825 28.6484C143.978 28.9521 144.053 29.2938 144.053 29.7107C144.053 29.7493 144.053 29.7865 144.053 29.8246C144.053 29.8632 144.053 29.9004 144.053 29.9384H140.88C140.919 30.1282 140.956 30.2801 141.033 30.4312C141.148 30.6217 141.339 30.8108 141.53 30.9247C141.76 31.0386 141.989 31.0766 142.295 31.0766C142.524 31.0766 142.753 31.0386 142.945 30.9627C143.137 30.8875 143.289 30.7728 143.442 30.6217L143.825 31.0766C143.633 31.2671 143.442 31.4562 143.175 31.5321C142.906 31.6453 142.601 31.6832 142.295 31.6832C141.874 31.6832 141.491 31.608 141.186 31.4181C140.881 31.2284 140.612 31.0006 140.46 30.6977C140.268 30.3932 140.192 30.0523 140.192 29.6727C140.192 29.2937 140.268 28.9521 140.46 28.6484C140.613 28.3447 140.881 28.117 141.149 27.9279C141.455 27.776 141.798 27.6621 142.142 27.6621C142.525 27.6621 142.869 27.7374 143.137 27.9279C143.442 28.117 143.672 28.3447 143.825 28.6484ZM143.404 29.407C143.404 29.2172 143.328 29.0661 143.252 28.9142C143.137 28.7243 142.984 28.5725 142.793 28.4587C142.601 28.3455 142.371 28.3075 142.142 28.3075C141.913 28.3075 141.683 28.3455 141.492 28.4587C141.3 28.5725 141.149 28.7251 141.034 28.9142C140.957 29.0661 140.919 29.2179 140.881 29.407H143.404ZM149.025 28.6484C149.217 28.9521 149.293 29.2937 149.293 29.6727C149.293 30.0523 149.217 30.4319 149.025 30.7356C148.833 31.0393 148.605 31.267 148.337 31.4189C148.03 31.5708 147.687 31.6839 147.304 31.6839C146.96 31.6839 146.692 31.6087 146.425 31.4569C146.233 31.343 146.081 31.2297 145.928 31.0393V33.0505H145.201V27.7374H145.89V28.3448C146.043 28.1542 146.195 28.0038 146.387 27.9271C146.655 27.7753 146.961 27.6994 147.305 27.6994C147.688 27.6994 148.031 27.7753 148.338 27.9651C148.606 28.1169 148.834 28.3447 149.025 28.6484ZM148.566 29.6727C148.566 29.407 148.491 29.1412 148.375 28.9521C148.26 28.763 148.107 28.5725 147.917 28.4587C147.725 28.3455 147.496 28.3075 147.228 28.3075C146.999 28.3075 146.769 28.3455 146.54 28.4587C146.348 28.5725 146.195 28.7251 146.081 28.9521C145.966 29.1419 145.889 29.407 145.889 29.6727C145.889 29.9384 145.966 30.2041 146.081 30.3932C146.195 30.5838 146.349 30.7729 146.54 30.8868C146.73 31.0006 146.96 31.0386 147.228 31.0386C147.496 31.0386 147.725 31.0006 147.917 30.8868C148.108 30.7729 148.26 30.621 148.375 30.3932C148.49 30.2035 148.566 29.9384 148.566 29.6727ZM153.767 28.6484C153.96 28.9521 154.035 29.2937 154.035 29.6727C154.035 30.0523 153.96 30.3932 153.767 30.6977C153.576 31.0014 153.347 31.2291 153.042 31.4181C152.735 31.608 152.391 31.6832 152.009 31.6832C151.627 31.6832 151.244 31.608 150.938 31.4181C150.631 31.2284 150.402 31.0006 150.212 30.6977C150.02 30.3932 149.944 30.0523 149.944 29.6727C149.944 29.2937 150.02 28.9521 150.212 28.6484C150.403 28.3447 150.632 28.117 150.938 27.9279C151.244 27.776 151.588 27.6621 152.009 27.6621C152.391 27.6621 152.735 27.7374 153.042 27.9279C153.386 28.117 153.615 28.3447 153.767 28.6484ZM153.347 29.6727C153.347 29.407 153.308 29.1412 153.193 28.9521C153.078 28.763 152.926 28.5725 152.735 28.4587C152.543 28.3455 152.314 28.3075 152.046 28.3075C151.779 28.3075 151.588 28.3455 151.358 28.4587C151.167 28.5725 151.014 28.7251 150.899 28.9521C150.785 29.1419 150.708 29.407 150.708 29.6727C150.708 29.9384 150.784 30.2041 150.899 30.3932C151.014 30.5838 151.168 30.7729 151.358 30.8868C151.549 31.0006 151.779 31.0386 152.046 31.0386C152.314 31.0386 152.543 31.0006 152.735 30.8868C152.927 30.7729 153.078 30.621 153.193 30.3932C153.27 30.2035 153.347 29.9384 153.347 29.6727ZM158.547 30.5458C158.547 30.8868 158.432 31.1525 158.166 31.3423C157.898 31.5328 157.515 31.608 156.98 31.608H155.106V27.6994H156.941C157.399 27.6994 157.744 27.7753 158.012 27.9651C158.28 28.155 158.395 28.3827 158.395 28.6857C158.395 28.9887 158.28 29.2551 158.012 29.4063C157.937 29.4449 157.859 29.5201 157.744 29.5588C157.936 29.5968 158.05 29.672 158.165 29.7486C158.432 29.9764 158.547 30.2034 158.547 30.5458ZM155.793 29.407H156.865C157.133 29.407 157.363 29.369 157.477 29.2551C157.591 29.1412 157.706 29.028 157.706 28.8375C157.706 28.6478 157.63 28.4966 157.477 28.42C157.324 28.3448 157.133 28.2681 156.865 28.2681H155.793V29.407ZM157.821 30.5071C157.821 30.3173 157.744 30.1662 157.629 30.0523C157.477 29.9384 157.285 29.9004 156.979 29.9004H155.793V31.0766H156.94C157.247 31.0766 157.477 31.0386 157.59 30.9247C157.744 30.8488 157.821 30.6977 157.821 30.5071ZM169.408 27.0161C169.522 27.2059 169.561 27.3957 169.561 27.6235C169.561 27.8505 169.522 28.0411 169.408 28.2302C169.293 28.4193 169.14 28.5338 168.95 28.6478C168.759 28.7616 168.529 28.7996 168.261 28.7996C167.993 28.7996 167.764 28.7616 167.572 28.6478C167.381 28.5338 167.229 28.4199 167.114 28.2302C166.999 28.0404 166.961 27.8505 166.961 27.6235C166.961 27.3957 166.999 27.2052 167.114 27.0161C167.229 26.827 167.381 26.7124 167.572 26.5985C167.764 26.4846 167.993 26.4467 168.261 26.4467C168.529 26.4467 168.759 26.4846 168.95 26.5985C169.14 26.6752 169.293 26.827 169.408 27.0161ZM169.063 27.6242C169.063 27.3965 168.987 27.2059 168.834 27.0547C168.681 26.9022 168.49 26.827 168.26 26.827C168.03 26.827 167.802 26.9022 167.648 27.0547C167.496 27.2059 167.419 27.3957 167.419 27.6242C167.419 27.8513 167.496 28.0418 167.648 28.155C167.802 28.3075 167.992 28.3827 168.26 28.3827C168.489 28.3827 168.681 28.3075 168.834 28.155C168.987 28.0411 169.063 27.8513 169.063 27.6242ZM167.075 29.8625H169.408V29.369H167.075V29.8625ZM165.508 30.318L162.41 26.4853H161.798V31.646H162.524V27.814L165.622 31.646H166.233V26.4853H165.508V30.318ZM170.211 26.4846V27.13H171.397V31.6453H172.124V26.4846H170.211Z" fill="#132539"/>
<path d="M125.125 3.18604L125.164 19.0468H122.984L122.945 7.47356L117.171 17.1122H116.139L110.326 7.54941V19.0461H108.146V3.18604H110.021L116.675 14.3416L123.253 3.18604H125.125ZM136.559 8.11818C137.438 8.91532 137.898 10.1294 137.898 11.7983V19.0461H135.833V17.4524C135.527 17.9073 135.145 18.2489 134.609 18.5526C133.883 18.9702 132.966 19.1592 131.856 19.1592C130.937 19.1592 130.173 19.0074 129.485 18.7044C128.796 18.4014 128.299 17.9839 127.916 17.4524C127.534 16.9209 127.381 16.3143 127.381 15.631C127.381 14.9856 127.534 14.3789 127.839 13.8475C128.144 13.316 128.643 12.8984 129.369 12.5955C130.095 12.2925 131.014 12.1026 132.237 12.1026H135.717V11.6851C135.717 10.774 135.449 10.0535 134.913 9.56066C134.379 9.06722 133.575 8.80144 132.466 8.80144C131.74 8.80144 131.051 8.91532 130.363 9.14317C129.674 9.3702 129.101 9.67391 128.642 10.0915L127.725 8.46053C128.336 7.967 129.1 7.58815 129.981 7.32166C130.86 7.05669 131.777 6.94281 132.734 6.94281C134.38 6.90408 135.642 7.32166 136.559 8.11818ZM135.717 13.6964H132.352C131.243 13.6964 130.517 13.8861 130.134 14.2278C129.752 14.6074 129.561 15.0243 129.561 15.5557C129.561 16.1632 129.79 16.6187 130.287 16.9596C130.745 17.3012 131.396 17.491 132.237 17.491C133.079 17.491 133.766 17.3012 134.379 16.9596C134.99 16.5806 135.449 16.0872 135.717 15.3659L135.717 13.6964ZM140.459 19.0461H142.639V8.95334H149.369V7.05669H140.459V19.0461ZM158.853 8.11818C159.732 8.91532 160.192 10.1294 160.192 11.7983V19.0461H158.127V17.4524C157.821 17.9073 157.439 18.2489 156.903 18.5526C156.176 18.9702 155.259 19.1592 154.15 19.1592C153.231 19.1592 152.467 19.0074 151.778 18.7044C151.089 18.4014 150.593 17.9839 150.21 17.4524C149.828 16.9209 149.675 16.3143 149.675 15.631C149.675 14.9856 149.828 14.3789 150.133 13.8475C150.44 13.316 150.937 12.8984 151.663 12.5955C152.389 12.2918 153.307 12.1026 154.531 12.1026H158.011V11.6851C158.011 10.774 157.743 10.0535 157.208 9.56066C156.672 9.06722 155.869 8.80144 154.76 8.80144C154.034 8.80144 153.345 8.91532 152.657 9.14317C151.968 9.3702 151.395 9.67391 150.936 10.0915L150.018 8.46053C150.63 7.967 151.394 7.58815 152.275 7.32166C153.154 7.05669 154.072 6.94281 155.028 6.94281C156.674 6.90408 157.974 7.32166 158.853 8.11818ZM158.012 13.6964H154.647C153.539 13.6964 152.812 13.8861 152.429 14.2278C152.047 14.6074 151.856 15.0243 151.856 15.5557C151.856 16.1632 152.085 16.6187 152.581 16.9596C153.04 17.3012 153.69 17.491 154.532 17.491C155.374 17.491 156.061 17.3012 156.673 16.9596C157.284 16.5806 157.743 16.0872 158.012 15.3659L158.012 13.6964ZM170.976 13.3554C170.594 13.0897 170.135 12.8999 169.6 12.7481C169.676 12.7101 169.714 12.7101 169.791 12.6728C170.403 12.4071 170.9 12.0662 171.245 11.6099C171.627 11.155 171.78 10.6609 171.78 10.0921C171.78 9.40885 171.55 8.84009 171.054 8.30935C170.556 7.81591 169.907 7.43625 169.103 7.17057C168.261 6.90479 167.344 6.79092 166.312 6.82956C165.624 6.82956 164.897 6.94344 164.208 7.13327C163.482 7.32309 162.794 7.58878 162.067 7.93041L162.68 9.63804C163.329 9.33434 163.98 9.06856 164.591 8.91747C165.203 8.76486 165.853 8.68972 166.465 8.6517C167.077 8.6517 167.651 8.72693 168.109 8.84152C168.568 8.99342 168.951 9.18316 169.181 9.44822C169.449 9.7139 169.563 10.0176 169.563 10.3592C169.563 10.7002 169.449 10.966 169.219 11.2317C168.99 11.4975 168.683 11.6493 168.301 11.8011C167.919 11.915 167.459 11.9916 166.925 11.9916H164.859V13.5473H167.039C167.919 13.5473 168.646 13.6992 169.142 14.0022C169.64 14.3059 169.908 14.7227 169.908 15.2928C169.908 15.6718 169.754 16.0134 169.486 16.317C169.219 16.6207 168.836 16.8486 168.301 16.9997C167.804 17.1522 167.193 17.2662 166.504 17.2662C165.739 17.2662 164.974 17.1523 164.247 16.9617C163.482 16.7719 162.832 16.4689 162.258 16.1266L161.608 17.7962C162.297 18.251 163.062 18.5554 163.941 18.8211C164.82 19.0482 165.7 19.1621 166.617 19.1621C167.688 19.1621 168.644 19.0102 169.448 18.7072C170.289 18.4036 170.938 17.9866 171.437 17.4172C171.933 16.8479 172.163 16.2404 172.163 15.5199C172.123 14.6074 171.741 13.8861 170.976 13.3554Z" fill="#132539"/>
<path d="M63.213 3.18604H65.3164V19.0468H63.06V6.82893L53.5762 19.0468H51.4727V3.18604H53.7292V15.4039L63.213 3.18604ZM68.5663 19.0461H70.7463V8.95334H77.4768V7.05669H68.5663V19.0461ZM90.5168 9.82572C91.0521 10.7368 91.3202 11.799 91.3202 13.013C91.3202 14.2271 91.0521 15.328 90.5168 16.2383C89.9806 17.1494 89.2546 17.87 88.3372 18.4014C87.419 18.9322 86.3867 19.1599 85.2014 19.1599C84.2074 19.1599 83.2892 18.9322 82.4475 18.4767C81.8737 18.173 81.3771 17.7182 80.9562 17.2246V23.4482H78.8144V7.05669H80.9179V8.95334C81.3387 8.38386 81.8355 7.92907 82.4475 7.62536C83.2892 7.16985 84.2066 6.94209 85.239 6.94209C86.4242 6.94209 87.4955 7.20778 88.3746 7.70059C89.2936 8.19484 90.0201 8.91541 90.5168 9.82572ZM89.1023 13.013C89.1023 12.1407 88.9103 11.4194 88.5667 10.774C88.2224 10.1294 87.725 9.67382 87.1129 9.29426C86.5015 8.95334 85.8128 8.76351 85.0101 8.76351C84.2449 8.76351 83.5571 8.95334 82.9449 9.29426C82.3328 9.63589 81.8355 10.1294 81.4919 10.774C81.1475 11.4194 80.9562 12.1399 80.9562 13.013C80.9562 13.8482 81.1475 14.6074 81.4919 15.252C81.8355 15.8974 82.3328 16.3902 82.9449 16.7318C83.5564 17.0728 84.2449 17.2633 85.0101 17.2633C85.7753 17.2633 86.5015 17.0728 87.1129 16.7318C87.725 16.3902 88.2217 15.8968 88.5667 15.252C88.9485 14.6074 89.1023 13.8862 89.1023 13.013ZM105.507 13.013C105.507 14.1892 105.239 15.252 104.704 16.2004C104.168 17.1115 103.404 17.832 102.447 18.3635C101.491 18.8943 100.421 19.1599 99.2352 19.1599C98.0103 19.1599 96.9406 18.8943 95.9847 18.3635C95.028 17.832 94.3017 17.1115 93.7278 16.1624C93.1925 15.2513 92.8867 14.1892 92.8867 13.013C92.8867 11.837 93.1539 10.774 93.7278 9.82572C94.264 8.91541 95.028 8.19475 95.9847 7.66329C96.9406 7.13183 98.0103 6.86615 99.2352 6.86615C100.421 6.86615 101.529 7.13183 102.447 7.66329C103.404 8.19475 104.13 8.91541 104.704 9.82572C105.24 10.7748 105.507 11.837 105.507 13.013ZM103.29 13.013C103.29 12.1407 103.098 11.4194 102.754 10.774C102.41 10.1294 101.913 9.67382 101.301 9.29426C100.69 8.95334 100.001 8.76351 99.1975 8.76351C98.4327 8.76351 97.744 8.95334 97.1325 9.29426C96.521 9.63589 96.0233 10.1294 95.679 10.774C95.297 11.4194 95.1437 12.1399 95.1437 13.013C95.1437 13.8482 95.3347 14.6074 95.679 15.252C96.0619 15.8974 96.521 16.3902 97.1325 16.7318C97.744 17.0728 98.4327 17.2633 99.1975 17.2633C99.9615 17.2633 100.689 17.0728 101.301 16.7318C101.913 16.3902 102.409 15.8968 102.754 15.252C103.137 14.6074 103.29 13.8862 103.29 13.013Z" fill="#4AB8E6"/>
<path d="M27.7249 31.7971C27.5336 31.3416 27.0362 31.1517 26.5771 31.3036C25.2005 31.8351 23.8623 32.176 22.5239 32.2899V29.8618C24.665 29.3303 26.9214 27.357 26.9214 25.7254C26.9214 23.8288 24.5126 22.311 21.5299 22.311C18.5472 22.311 16.1377 23.8288 16.1377 25.7254C16.1377 27.357 18.3942 29.3683 20.5359 29.8618V32.2899C19.1969 32.176 17.8586 31.8351 16.482 31.3036C16.0236 31.1138 15.5255 31.3416 15.3342 31.7971C15.143 32.2519 15.3725 32.7454 15.8316 32.9345C17.7438 33.6937 19.6553 34.0734 21.5675 34.0734C23.4796 34.0734 25.3912 33.6937 27.3041 32.9345C27.6867 32.7454 27.9162 32.214 27.7249 31.7971Z" fill="#132539"/>
<path d="M33.6897 7.93038C36.3664 9.40945 38.6229 11.3834 40.3056 13.6976C41.9499 12.2559 42.9823 10.1687 42.9823 7.81651C42.9823 3.49099 39.4639 0 35.1046 0C31.8541 0 29.0626 1.97325 27.8391 4.78099C25.8504 4.09772 23.7087 3.75671 21.4911 3.75671C19.2736 3.75671 17.1318 4.13637 15.1432 4.78099C13.9578 1.97325 11.1664 0 7.87762 0C3.51833 0 0 3.49099 0 7.81651C0 10.1694 1.03227 12.2559 2.67666 13.6976C4.32105 11.3834 6.57686 9.40945 9.29243 7.93038C5.81241 10.6622 3.2888 14.5701 2.29409 19.0474C1.68268 21.9317 1.30006 26.8259 6.00368 27.2815C13.8048 28.0407 15.1432 19.3131 21.4529 19.3131C27.7626 19.3131 29.1009 28.0407 36.9027 27.2815C41.6446 26.8267 41.262 21.8938 40.6116 19.0474C39.6934 14.6087 37.1698 10.7001 33.6897 7.93038ZM13.7283 17.3406H12.4282V18.6305C12.4282 19.2378 11.9315 19.7306 11.3194 19.7306C10.7073 19.7306 10.2106 19.2378 10.2106 18.6305V17.3406H8.9106C8.29918 17.3406 7.80182 16.8477 7.80182 16.2403C7.80182 15.6337 8.29918 15.1402 8.9106 15.1402H10.2106V13.8502C10.2106 13.2435 10.708 12.75 11.3194 12.75C11.9308 12.75 12.4282 13.2435 12.4282 13.8502V15.1402H13.7283C14.3396 15.1402 14.837 15.6337 14.837 16.2403C14.837 16.847 14.3396 17.3406 13.7283 17.3406ZM31.4715 12.5975C32.1984 12.5975 32.8105 13.1669 32.8105 13.9262C32.8105 14.6847 32.2367 15.2541 31.4715 15.2541C30.7453 15.2541 30.1332 14.6847 30.1332 13.9262C30.1339 13.1663 30.7453 12.5975 31.4715 12.5975ZM29.1009 17.5683C28.3747 17.5683 27.7626 16.9982 27.7626 16.2396C27.7626 15.4811 28.3365 14.9117 29.1009 14.9117C29.8271 14.9117 30.4392 15.4811 30.4392 16.2396C30.4392 16.9982 29.8278 17.5683 29.1009 17.5683ZM31.4715 19.9205C30.7453 19.9205 30.1332 19.3518 30.1332 18.5926C30.1332 17.8341 30.707 17.2646 31.4715 17.2646C32.1984 17.2646 32.8105 17.8341 32.8105 18.5926C32.8105 19.3518 32.1984 19.9205 31.4715 19.9205ZM33.8435 17.5683C33.1166 17.5683 32.5051 16.9982 32.5051 16.2396C32.5051 15.4811 33.0791 14.9117 33.8435 14.9117C34.5697 14.9117 35.1818 15.4811 35.1818 16.2396C35.1818 16.9982 34.5697 17.5683 33.8435 17.5683Z" fill="#4AB8E6"/>
</svg>
